<svg width="154" height="19" viewBox="0 0 154 19" fill="none" xmlns="http://www.w3.org/2000/svg">
<path d="M10.063 6.07031C10.0239 5.65625 9.8989 5.30078 9.68797 5.00391C9.47703 4.70703 9.18015 4.48438 8.79734 4.33594C8.41453 4.17969 7.94968 4.10156 7.40281 4.10156C6.87937 4.10156 6.43406 4.17188 6.06687 4.3125C5.69968 4.45312 5.42234 4.64844 5.23484 4.89844C5.04734 5.14844 4.95359 5.4375 4.95359 5.76562C4.93797 6.25781 5.145 6.65234 5.57468 6.94922C6.00437 7.23828 6.63718 7.48047 7.47312 7.67578L8.94968 8.00391C10.6528 8.37891 11.938 8.98438 12.8052 9.82031C13.6723 10.6484 14.1137 11.7344 14.1294 13.0781C14.1294 14.1406 13.8598 15.0586 13.3208 15.832C12.7817 16.5977 12.0122 17.1875 11.0122 17.6016C10.0122 18.0078 8.81297 18.2109 7.41453 18.2109C5.98484 18.2109 4.74656 17.9961 3.69968 17.5664C2.65281 17.1367 1.84422 16.4922 1.2739 15.6328C0.70359 14.7656 0.402809 13.6914 0.371559 12.4102H4.21531C4.25437 12.9492 4.40672 13.4062 4.67234 13.7812C4.93797 14.1484 5.30125 14.4258 5.76218 14.6133C6.22312 14.8008 6.75437 14.8945 7.35593 14.8945C7.91843 14.8945 8.40281 14.8164 8.80906 14.6602C9.21531 14.5039 9.5239 14.2891 9.73484 14.0156C9.95359 13.7422 10.063 13.4258 10.063 13.0664C10.063 12.7461 9.96531 12.4688 9.77 12.2344C9.57468 12 9.27781 11.7969 8.87937 11.625C8.48093 11.4531 7.9575 11.293 7.30906 11.1445L5.52781 10.7227C4.00437 10.3789 2.84031 9.82422 2.03562 9.05859C1.23093 8.29297 0.82859 7.28516 0.82859 6.03516C0.82859 5.00391 1.10984 4.09375 1.67234 3.30469C2.23484 2.51562 3.01609 1.90234 4.01609 1.46484C5.01609 1.01953 6.15281 0.796875 7.42625 0.796875C8.71531 0.796875 9.84422 1.01562 10.813 1.45312C11.7895 1.89062 12.5434 2.50781 13.0747 3.30469C13.6137 4.10156 13.8872 5.02344 13.895 6.07031H10.063ZM21.6162 18H17.6319V1.03125H21.6162V18ZM25.0484 1.03125H39.3219V4.28906H34.1539V18H30.2164V4.28906H25.0484V1.03125ZM42.7541 1.03125H54.508V4.28906H46.7384V7.88672H53.8986V11.1328H46.7384V14.7422H54.508V18H42.7541V1.03125ZM74.4973 6.07031C74.4583 5.65625 74.3333 5.30078 74.1223 5.00391C73.9114 4.70703 73.6145 4.48438 73.2317 4.33594C72.8489 4.17969 72.3841 4.10156 71.8372 4.10156C71.3137 4.10156 70.8684 4.17188 70.5012 4.3125C70.1341 4.45312 69.8567 4.64844 69.6692 4.89844C69.4817 5.14844 69.388 5.4375 69.388 5.76562C69.3723 6.25781 69.5794 6.65234 70.0091 6.94922C70.4387 7.23828 71.0716 7.48047 71.9075 7.67578L73.3841 8.00391C75.0872 8.37891 76.3723 8.98438 77.2395 9.82031C78.1067 10.6484 78.5481 11.7344 78.5637 13.0781C78.5637 14.1406 78.2942 15.0586 77.7551 15.832C77.2161 16.5977 76.4466 17.1875 75.4466 17.6016C74.4466 18.0078 73.2473 18.2109 71.8489 18.2109C70.4192 18.2109 69.1809 17.9961 68.1341 17.5664C67.0872 17.1367 66.2786 16.4922 65.7083 15.6328C65.138 14.7656 64.8372 13.6914 64.8059 12.4102H68.6497C68.6887 12.9492 68.8411 13.4062 69.1067 13.7812C69.3723 14.1484 69.7356 14.4258 70.1966 14.6133C70.6575 14.8008 71.1887 14.8945 71.7903 14.8945C72.3528 14.8945 72.8372 14.8164 73.2434 14.6602C73.6497 14.5039 73.9583 14.2891 74.1692 14.0156C74.388 13.7422 74.4973 13.4258 74.4973 13.0664C74.4973 12.7461 74.3997 12.4688 74.2044 12.2344C74.0091 12 73.7122 11.7969 73.3137 11.625C72.9153 11.4531 72.3919 11.293 71.7434 11.1445L69.9622 10.7227C68.4387 10.3789 67.2747 9.82422 66.47 9.05859C65.6653 8.29297 65.263 7.28516 65.263 6.03516C65.263 5.00391 65.5442 4.09375 66.1067 3.30469C66.6692 2.51562 67.4505 1.90234 68.4505 1.46484C69.4505 1.01953 70.5872 0.796875 71.8606 0.796875C73.1497 0.796875 74.2786 1.01562 75.2473 1.45312C76.2239 1.89062 76.9778 2.50781 77.5091 3.30469C78.0481 4.10156 78.3216 5.02344 78.3294 6.07031H74.4973ZM93.328 7.13672C93.2655 6.55859 93.0897 6.05859 92.8006 5.63672C92.5116 5.20703 92.1209 4.87891 91.6287 4.65234C91.1444 4.41797 90.5936 4.30078 89.9764 4.30078C89.1405 4.30078 88.4217 4.50781 87.8202 4.92188C87.2186 5.33594 86.7537 5.93359 86.4256 6.71484C86.0975 7.48828 85.9334 8.42188 85.9334 9.51562C85.9334 10.6406 86.0975 11.5898 86.4256 12.3633C86.7537 13.1367 87.2186 13.7266 87.8202 14.1328C88.4217 14.5312 89.1287 14.7305 89.9412 14.7305C90.5506 14.7305 91.0897 14.6211 91.5584 14.4023C92.035 14.1836 92.4256 13.8789 92.7303 13.4883C93.035 13.0898 93.2342 12.6133 93.328 12.0586L97.3827 12.0938C97.2733 13.1406 96.9061 14.1328 96.2811 15.0703C95.6639 16.0078 94.8045 16.7695 93.703 17.3555C92.6092 17.9414 91.3319 18.2344 89.8709 18.2344C88.3319 18.2344 86.953 17.8906 85.7342 17.2031C84.5233 16.5156 83.5741 15.5156 82.8866 14.2031C82.1991 12.8906 81.8553 11.3281 81.8553 9.51562C81.8553 7.6875 82.203 6.11719 82.8983 4.80469C83.6014 3.49219 84.5584 2.49609 85.7694 1.81641C86.9803 1.13672 88.3475 0.796875 89.8709 0.796875C91.2303 0.796875 92.4491 1.04688 93.5272 1.54688C94.6131 2.04688 95.492 2.77344 96.1639 3.72656C96.8358 4.67969 97.242 5.81641 97.3827 7.13672H93.328ZM117.057 9.51562C117.057 11.3281 116.705 12.8906 116.002 14.2031C115.299 15.5156 114.338 16.5156 113.12 17.2031C111.901 17.8906 110.522 18.2344 108.983 18.2344C107.452 18.2344 106.073 17.8906 104.846 17.2031C103.627 16.5156 102.666 15.5117 101.963 14.1914C101.268 12.8711 100.92 11.3125 100.92 9.51562C100.92 7.6875 101.268 6.11719 101.963 4.80469C102.666 3.49219 103.627 2.49609 104.846 1.81641C106.073 1.13672 107.452 0.796875 108.983 0.796875C110.522 0.796875 111.901 1.13672 113.12 1.81641C114.338 2.49609 115.299 3.49219 116.002 4.80469C116.705 6.11719 117.057 7.6875 117.057 9.51562ZM112.979 9.51562C112.979 8.39844 112.819 7.45312 112.498 6.67969C112.186 5.89844 111.729 5.30859 111.127 4.91016C110.534 4.50391 109.819 4.30078 108.983 4.30078C108.155 4.30078 107.44 4.50391 106.838 4.91016C106.245 5.30859 105.787 5.89844 105.467 6.67969C105.155 7.45312 104.998 8.39844 104.998 9.51562C104.998 10.6328 105.155 11.582 105.467 12.3633C105.787 13.1367 106.245 13.7266 106.838 14.1328C107.44 14.5312 108.155 14.7305 108.983 14.7305C109.819 14.7305 110.534 14.5312 111.127 14.1328C111.729 13.7266 112.186 13.1367 112.498 12.3633C112.819 11.582 112.979 10.6328 112.979 9.51562ZM136.778 9.51562C136.778 11.3281 136.427 12.8906 135.724 14.2031C135.02 15.5156 134.06 16.5156 132.841 17.2031C131.622 17.8906 130.243 18.2344 128.704 18.2344C127.173 18.2344 125.794 17.8906 124.567 17.2031C123.349 16.5156 122.388 15.5117 121.685 14.1914C120.989 12.8711 120.642 11.3125 120.642 9.51562C120.642 7.6875 120.989 6.11719 121.685 4.80469C122.388 3.49219 123.349 2.49609 124.567 1.81641C125.794 1.13672 127.173 0.796875 128.704 0.796875C130.243 0.796875 131.622 1.13672 132.841 1.81641C134.06 2.49609 135.02 3.49219 135.724 4.80469C136.427 6.11719 136.778 7.6875 136.778 9.51562ZM132.7 9.51562C132.7 8.39844 132.54 7.45312 132.22 6.67969C131.907 5.89844 131.45 5.30859 130.849 4.91016C130.255 4.50391 129.54 4.30078 128.704 4.30078C127.876 4.30078 127.161 4.50391 126.56 4.91016C125.966 5.30859 125.509 5.89844 125.188 6.67969C124.876 7.45312 124.72 8.39844 124.72 9.51562C124.72 10.6328 124.876 11.582 125.188 12.3633C125.509 13.1367 125.966 13.7266 126.56 14.1328C127.161 14.5312 127.876 14.7305 128.704 14.7305C129.54 14.7305 130.255 14.5312 130.849 14.1328C131.45 13.7266 131.907 13.1367 132.22 12.3633C132.54 11.582 132.7 10.6328 132.7 9.51562ZM140.574 1.03125H147.511C148.769 1.03125 149.863 1.27734 150.793 1.76953C151.722 2.25391 152.437 2.94141 152.937 3.83203C153.437 4.71484 153.687 5.73047 153.687 6.87891C153.687 8.04297 153.429 9.0625 152.914 9.9375C152.406 10.8047 151.679 11.4805 150.734 11.9648C149.789 12.4414 148.675 12.6797 147.394 12.6797H143.07V9.51562H146.679C147.296 9.51562 147.82 9.41016 148.25 9.19922C148.679 8.98047 149.003 8.67578 149.222 8.28516C149.441 7.88672 149.55 7.41797 149.55 6.87891C149.55 6.33984 149.441 5.875 149.222 5.48438C149.003 5.09375 148.679 4.79297 148.25 4.58203C147.828 4.37109 147.3 4.26562 146.668 4.26562H144.558V18H140.574V1.03125Z" fill="url(#paint0_linear_73_2)"/>
<defs>
<linearGradient id="paint0_linear_73_2" x1="-19" y1="9" x2="173" y2="9" gradientUnits="userSpaceOnUse">
<stop stop-color="#3B82F6"/>
<stop offset="1" stop-color="#6366F1"/>
</linearGradient>
</defs>
</svg>
