<svg width="18" height="18" viewBox="0 0 18 18" fill="none" xmlns="http://www.w3.org/2000/svg">
<g clip-path="url(#clip0_76_4)">
<path d="M6.18567 11.8156L11.8163 6.18536M4.07356 8.29634L2.66615 9.70366C2.29643 10.0733 2.00316 10.5122 1.80307 10.9953C1.60298 11.4783 1.5 11.996 1.5 12.5188C1.5 13.0416 1.60298 13.5593 1.80307 14.0423C2.00316 14.5254 2.29643 14.9642 2.66615 15.3339C3.03586 15.7036 3.47477 15.9969 3.95783 16.1969C4.44088 16.397 4.95861 16.5 5.48147 16.5C6.00432 16.5 6.52206 16.397 7.00511 16.1969C7.48816 15.9969 7.92708 15.7036 8.29679 15.3339L9.70221 13.9266M8.2958 4.07339L9.70321 2.66607C10.0729 2.29638 10.5118 2.00313 10.9949 1.80305C11.4779 1.60298 11.9957 1.5 12.5185 1.5C13.0414 1.5 13.5591 1.60298 14.0422 1.80305C14.5252 2.00313 14.9641 2.29638 15.3339 2.66607C15.7036 3.03576 15.9968 3.47464 16.1969 3.95766C16.397 4.44069 16.5 4.95839 16.5 5.4812C16.5 6.00402 16.397 6.52172 16.1969 7.00475C15.9968 7.48777 15.7036 7.92665 15.3339 8.29634L13.9264 9.70366" stroke="#202020" stroke-width="1.5" stroke-linecap="round" stroke-linejoin="round"/>
</g>
<defs>
<clipPath id="clip0_76_4">
<rect width="18" height="18" fill="white"/>
</clipPath>
</defs>
</svg>
