<svg width="18" height="16" viewBox="0 0 18 16" fill="none" xmlns="http://www.w3.org/2000/svg">
<g clip-path="url(#clip0_36_13)">
<path d="M14.7707 5.18062C14.5795 5.11504 14.3867 5.05427 14.1925 4.99837C14.2251 4.86504 14.2552 4.73332 14.2818 4.60392C14.7196 2.47894 14.4334 0.767005 13.4559 0.203356C12.5187 -0.336995 10.986 0.226444 9.4381 1.5736C9.28555 1.7066 9.13637 1.84344 8.99074 1.98399C8.89324 1.89053 8.79401 1.79889 8.69312 1.70911C7.07081 0.26869 5.4447 -0.338398 4.46828 0.226865C3.53193 0.7689 3.25467 2.37823 3.64877 4.39213C3.68798 4.59158 3.73225 4.79001 3.78154 4.98722C3.55137 5.05262 3.32926 5.12223 3.1167 5.19634C1.21467 5.8595 0 6.89872 0 7.97669C0 9.09002 1.304 10.2067 3.28505 10.8838C3.44566 10.9385 3.60761 10.9892 3.77074 11.0358C3.71778 11.2482 3.67074 11.462 3.62968 11.677C3.25396 13.656 3.54737 15.2273 4.48119 15.7659C5.44568 16.3221 7.06449 15.7504 8.6407 14.3726C8.76851 14.2605 8.89351 14.1453 9.01558 14.0271C9.1733 14.1793 9.33523 14.327 9.50119 14.4702C11.0281 15.784 12.536 16.3145 13.4689 15.7744C14.4325 15.2166 14.7457 13.5286 14.3391 11.4749C14.3071 11.314 14.2711 11.1539 14.2314 10.9948C14.3451 10.9611 14.4566 10.9264 14.5654 10.8904C16.6249 10.2081 17.9649 9.1049 17.9649 7.97669C17.9649 6.89479 16.711 5.84855 14.7707 5.18062ZM14.3241 10.162C14.2257 10.1944 14.1251 10.2259 14.0223 10.2563C13.7949 9.53655 13.4881 8.77122 13.1126 7.98041C13.4709 7.20848 13.766 6.4529 13.9869 5.73781C14.1707 5.79101 14.3491 5.84708 14.521 5.90623C16.1834 6.47858 17.1975 7.32469 17.1975 7.97669C17.1975 8.67115 16.1023 9.57269 14.3241 10.162ZM13.5862 11.624C13.766 12.5321 13.7916 13.3531 13.6726 13.995C13.5656 14.5718 13.3505 14.9563 13.0844 15.1103C12.5182 15.438 11.3075 15.0121 10.0018 13.8884C9.8474 13.7553 9.69677 13.6179 9.55003 13.4765C10.0563 12.9229 10.5622 12.2793 11.0559 11.5645C11.9244 11.4874 12.7449 11.3614 13.489 11.1894C13.5257 11.3373 13.5581 11.4822 13.5862 11.624ZM6.12463 15.0537C5.57151 15.249 5.13095 15.2546 4.86463 15.101C4.29797 14.7742 4.06239 13.5126 4.38372 11.8202C4.42192 11.6202 4.46566 11.4213 4.51488 11.2238C5.25074 11.3866 6.06526 11.5036 6.93579 11.5742C7.43291 12.2737 7.9534 12.9165 8.47796 13.4795C8.36648 13.5874 8.25237 13.6925 8.13572 13.7947C7.43867 14.404 6.74021 14.8363 6.12463 15.0537ZM3.53333 10.1577C2.65733 9.85823 1.93389 9.46911 1.43804 9.04448C0.992421 8.66294 0.767509 8.28406 0.767509 7.97669C0.767509 7.32251 1.74274 6.48813 3.36933 5.92104C3.56674 5.85227 3.77333 5.78736 3.98772 5.72644C4.21256 6.45767 4.50744 7.22223 4.8633 7.99536C4.50281 8.77992 4.20372 9.55669 3.9767 10.2965C3.8278 10.2539 3.67997 10.2076 3.53333 10.1577ZM4.40197 4.24469C4.06435 2.51929 4.28856 1.21774 4.85284 0.891075C5.45382 0.543146 6.78281 1.03922 8.18358 2.28301C8.27492 2.36429 8.36479 2.44723 8.45312 2.53178C7.93116 3.09227 7.41544 3.73037 6.92274 4.42567C6.07782 4.50399 5.26905 4.62974 4.52547 4.79823C4.47965 4.61481 4.43847 4.43019 4.40197 4.24469ZM12.1512 6.1583C11.9756 5.85493 11.7934 5.55538 11.6049 5.25985C12.1781 5.33234 12.7273 5.42855 13.243 5.54616C13.0882 6.04244 12.8952 6.56125 12.6681 7.09318C12.502 6.77814 12.3297 6.46646 12.1512 6.1583ZM8.99109 3.08034C9.34505 3.46385 9.69958 3.89199 10.0483 4.35655C9.34091 4.32314 8.63236 4.323 7.92498 4.35613C8.27404 3.89585 8.63158 3.46827 8.99109 3.08034ZM5.81067 6.1635C5.63441 6.46917 5.46531 6.77891 5.30351 7.09248C5.08007 6.56244 4.88884 6.04125 4.7327 5.53795C5.24526 5.42329 5.79186 5.32953 6.3614 5.25837C6.17078 5.55571 5.98715 5.85755 5.81067 6.1635ZM6.37775 10.7495C5.78933 10.6838 5.23453 10.5949 4.72211 10.4834C4.8807 9.97108 5.07614 9.4388 5.30442 8.89739C5.46686 9.21119 5.63666 9.52112 5.81368 9.82694C5.99572 10.1413 6.18421 10.4493 6.37775 10.7495ZM9.01228 12.9271C8.64849 12.5347 8.28568 12.1005 7.93137 11.6335C8.27537 11.647 8.62603 11.6539 8.98246 11.6539C9.34863 11.6539 9.7106 11.6457 10.0669 11.6298C9.71705 12.1052 9.36386 12.54 9.01228 12.9271ZM12.6753 8.86974C12.9154 9.41711 13.1178 9.94658 13.2785 10.4501C12.7577 10.569 12.1953 10.6647 11.6027 10.7358C11.7926 10.4348 11.9765 10.13 12.1542 9.82167C12.335 9.50827 12.5087 9.19088 12.6753 8.86974ZM11.4895 9.43823C11.2173 9.91095 10.9299 10.3747 10.6276 10.8288C10.0801 10.8676 9.53137 10.8868 8.98246 10.8865C8.42337 10.8865 7.87958 10.8691 7.35593 10.8351C7.04576 10.3822 6.75285 9.91759 6.47782 9.44244C6.20406 8.96983 5.94844 8.48698 5.71137 7.99494C5.94784 7.50278 6.20276 7.0197 6.47558 6.54672L6.47551 6.54679C6.74819 6.07368 7.03876 5.6111 7.3466 5.16006C7.88084 5.11964 8.4287 5.09858 8.98239 5.09858C9.5386 5.09858 10.0872 5.11985 10.6213 5.16055C10.9261 5.61091 11.2148 6.0719 11.4869 6.54265C11.7606 7.01461 12.0189 7.49533 12.2614 7.98406C12.0214 8.47778 11.7639 8.96281 11.4895 9.43823ZM13.0726 0.868128C13.6742 1.21508 13.9081 2.61416 13.5302 4.4489C13.5059 4.56605 13.479 4.68511 13.4495 4.80609C12.7041 4.63402 11.8947 4.50609 11.0474 4.42658C10.5538 3.72364 10.0422 3.08455 9.52877 2.53129C9.66335 2.40157 9.80112 2.27522 9.94197 2.15234C11.2683 0.998163 12.5079 0.542444 13.0726 0.868128ZM8.98246 6.37248C9.86842 6.37248 10.5867 7.09072 10.5867 7.97669C10.5867 8.86265 9.86842 9.5809 8.98246 9.5809C8.09649 9.5809 7.37825 8.86265 7.37825 7.97669C7.37825 7.09072 8.09649 6.37248 8.98246 6.37248Z" fill="#00D8FF"/>
</g>
<defs>
<clipPath id="clip0_36_13">
<rect width="17.9649" height="16" fill="white"/>
</clipPath>
</defs>
</svg>
