<svg width="16" height="16" viewBox="0 0 16 16" fill="none" xmlns="http://www.w3.org/2000/svg">
<g clip-path="url(#clip0_37_5)">
<path d="M11.0863 11.0137C9.96127 13.3137 7.99127 14.8612 5.38502 15.37C4.98542 15.4679 4.57519 15.5158 4.16377 15.5125C2.66377 15.5125 1.28877 14.8875 0.621273 13.8637C-0.274977 12.5 -0.579977 9.60875 2.37502 7.47C2.43502 7.79625 2.55752 8.24375 2.63877 8.50875C2.05869 8.93971 1.58387 9.49658 1.25002 10.1375C0.700023 11.2175 0.761273 12.2962 1.41252 13.2937C1.86252 13.9662 2.57502 14.375 3.49127 14.5C4.63569 14.6449 5.79669 14.4262 6.81002 13.875C8.39877 13.04 9.45752 12.0425 10.15 10.6787C9.95421 10.4764 9.83831 10.21 9.82377 9.92875C9.81331 9.62698 9.92299 9.33339 10.1287 9.1124C10.3345 8.89141 10.6195 8.76107 10.9213 8.75H10.9638C11.2573 8.74853 11.5401 8.85994 11.7537 9.06118C11.9674 9.26243 12.0955 9.5381 12.1115 9.83116C12.1276 10.1242 12.0304 10.4122 11.84 10.6356C11.6496 10.859 11.3807 11.0006 11.0888 11.0312L11.0863 11.0137ZM14.67 8.48875C16.1963 10.2188 16.2375 12.255 15.6475 13.4362C15.0975 14.515 13.6475 15.595 11.6975 15.595C10.7872 15.5764 9.89176 15.361 9.07252 14.9637C9.35877 14.76 9.76502 14.4337 9.98877 14.23C10.6205 14.5038 11.3003 14.6491 11.9888 14.6575C13.2513 14.6575 14.2075 14.0675 14.7775 12.9887C15.1438 12.2762 15.165 11.4412 14.8188 10.5862C14.394 9.51044 13.6379 8.59766 12.66 7.98C11.3771 7.11518 9.86471 6.65414 8.31752 6.65625H7.95127C7.86587 6.85353 7.72693 7.02296 7.5502 7.14535C7.37346 7.26774 7.16599 7.3382 6.95127 7.34875H6.91252C6.61554 7.3451 6.33169 7.22582 6.12124 7.01624C5.91079 6.80667 5.79033 6.5233 5.78545 6.22634C5.78057 5.92938 5.89165 5.64221 6.09509 5.42583C6.29854 5.20945 6.57832 5.08091 6.87502 5.0675H6.91627C7.12303 5.06765 7.32575 5.12478 7.50216 5.23262C7.67857 5.34045 7.82185 5.49481 7.91627 5.67875H8.24252C10.8425 5.67875 13.125 6.67625 14.67 8.48875ZM4.32627 11.3637C4.30476 11.1562 4.35506 10.9475 4.46877 10.7725C3.32877 8.7975 2.71877 6.29375 3.65502 3.6875C4.32627 1.72875 6.01627 0.404999 7.84877 0.404999C9.80377 0.404999 11.84 2.11625 12.0838 5.41375C11.7788 5.3125 11.3338 5.16375 11.0663 5.10875C11 4.03 10.0888 1.3425 7.93002 1.3825C7.15627 1.40375 6.01627 1.77 5.43002 2.5225C4.70493 3.42082 4.28308 4.52577 4.22502 5.67875C4.08752 7.25972 4.45846 8.8433 5.28377 10.1987C5.32933 10.1821 5.37789 10.1753 5.42627 10.1787H5.46627C5.76862 10.1733 6.06076 10.2881 6.27842 10.4981C6.49607 10.708 6.62143 10.9958 6.6269 11.2981C6.63237 11.6005 6.51751 11.8926 6.30758 12.1103C6.09766 12.3279 5.80987 12.4533 5.50752 12.4587H5.46627C5.17131 12.4577 4.88813 12.3429 4.67575 12.1382C4.46338 11.9335 4.33819 11.6547 4.32627 11.36V11.3637Z" fill="#764ABC"/>
</g>
<defs>
<clipPath id="clip0_37_5">
<rect width="16" height="16" fill="white"/>
</clipPath>
</defs>
</svg>
