<svg width="16" height="16" viewBox="0 0 16 16" fill="none" xmlns="http://www.w3.org/2000/svg">
<g clip-path="url(#clip0_36_20)">
<circle cx="8" cy="8" r="8" fill="#242938"/>
<path d="M8.00006 8.93993C8.51526 8.93993 8.93286 8.51507 8.93286 7.99102C8.93286 7.46698 8.51526 7.04211 8.00006 7.04211C7.48486 7.04211 7.06726 7.46698 7.06726 7.99102C7.06726 8.51507 7.48491 8.93993 8.00006 8.93993Z" fill="#00D8FF"/>
<path d="M8.0001 6.06165C9.2525 6.06165 10.416 6.24445 11.2932 6.55171C12.3502 6.92185 13 7.48292 13 7.99099C13 8.52043 12.3113 9.1165 11.1762 9.49904C10.3181 9.78825 9.18895 9.93921 8.0001 9.93921C6.7812 9.93921 5.62695 9.79751 4.75915 9.49584C3.66125 9.11411 3 8.51036 3 7.99099C3 7.48704 3.6205 6.93029 4.6626 6.56072C5.5431 6.24842 6.73525 6.06165 7.9999 6.06165H8.0001Z" stroke="#00D8FF" stroke-width="0.556938"/>
<path d="M6.34915 7.03185C6.97485 5.92822 7.7117 4.99426 8.4116 4.37475C9.2548 3.62823 10.0573 3.33586 10.4899 3.58962C10.9407 3.85411 11.1043 4.75887 10.863 5.95019C10.6808 6.85083 10.2451 7.9213 9.65115 8.96898C9.0422 10.0431 8.34495 10.9895 7.6546 11.6033C6.78105 12.3801 5.9365 12.6612 5.49425 12.4017C5.0651 12.1502 4.901 11.3251 5.1069 10.2222C5.28085 9.29018 5.7174 8.14632 6.34895 7.03185H6.34915Z" stroke="#00D8FF" stroke-width="0.556938"/>
<path d="M6.35054 8.97201C5.72309 7.86959 5.29589 6.75355 5.11759 5.82733C4.90294 4.71133 5.05469 3.8581 5.48694 3.60358C5.93739 3.33828 6.78954 3.646 7.68364 4.45361C8.35964 5.06417 9.05379 5.98261 9.64944 7.02928C10.2601 8.10239 10.7178 9.1896 10.8959 10.1045C11.1212 11.2624 10.9388 12.147 10.497 12.4072C10.0683 12.6597 9.28374 12.3924 8.44719 11.6601C7.74039 11.0414 6.98419 10.0854 6.35054 8.97201Z" stroke="#00D8FF" stroke-width="0.556938"/>
</g>
<defs>
<clipPath id="clip0_36_20">
<rect width="16" height="16" fill="white"/>
</clipPath>
</defs>
</svg>
