<svg width="16" height="16" viewBox="0 0 16 16" fill="none" xmlns="http://www.w3.org/2000/svg">
<path d="M2.34366 5.2939H3.42031V8.88515C3.42824 9.18801 3.3516 9.48708 3.199 9.74881C3.05062 9.99228 2.8361 10.1886 2.58044 10.3148C2.2946 10.4531 1.98002 10.5215 1.66256 10.5146C1.37281 10.5187 1.08541 10.4621 0.818812 10.3486C0.57425 10.2438 0.366299 10.0687 0.221312 9.84565C0.0737708 9.62102 0 9.33774 0 8.9958H1.08384C1.08719 9.19996 1.14634 9.3593 1.26144 9.47218C1.32213 9.52982 1.39386 9.57459 1.47231 9.60378C1.55075 9.63296 1.6343 9.64597 1.71791 9.64202C2.13174 9.64202 2.34032 9.38973 2.34366 8.88515V5.2939ZM5.80931 10.5195C5.41869 10.5195 5.08139 10.4362 4.79741 10.2694C4.51512 10.1048 4.28661 9.86193 4.13956 9.57012C3.97966 9.24635 3.90032 8.88875 3.90831 8.52774C3.90003 8.16511 3.97935 7.80583 4.13956 7.4804C4.28679 7.18873 4.51525 6.94586 4.79738 6.78109C5.10603 6.60817 5.45564 6.52177 5.80931 6.53099C6.16316 6.52182 6.51293 6.60822 6.82181 6.78109C7.10386 6.9458 7.33215 7.1887 7.47909 7.4804C7.63948 7.80578 7.719 8.16506 7.71091 8.52774C7.71872 8.8888 7.63919 9.2464 7.47909 9.57012C7.3323 9.86192 7.10397 10.1049 6.82181 10.2694C6.53744 10.4365 6.19994 10.5199 5.80931 10.5195ZM7.03425 5.2939V5.87484H4.58494V5.2939H7.03425ZM5.81706 9.68962C5.93517 9.69445 6.05242 9.66767 6.15671 9.61204C6.26101 9.55641 6.34857 9.47395 6.41034 9.37318L6.41959 9.35765C6.55605 9.13636 6.62428 8.85733 6.62428 8.52055C6.62428 8.19503 6.56001 7.92293 6.43147 7.70424L6.41791 7.6818C6.35736 7.57673 6.2692 7.49025 6.16299 7.43172C6.05678 7.3732 5.93657 7.34488 5.81541 7.34984C5.69638 7.34478 5.57815 7.37145 5.47282 7.42711C5.36749 7.48278 5.27885 7.56543 5.21597 7.66662L5.20681 7.6818C5.06923 7.90312 5.00044 8.1827 5.00044 8.52055C5.00044 8.84714 5.06472 9.11876 5.19328 9.33543L5.20681 9.35765C5.26693 9.46019 5.35314 9.54497 5.45666 9.60337C5.56019 9.66177 5.67734 9.6917 5.79619 9.69012L5.81706 9.68962ZM10.3074 6.58137V7.38637H9.58041V9.25971C9.58041 9.40727 9.61397 9.50687 9.68109 9.55849C9.75217 9.60976 9.83765 9.63722 9.92528 9.63693L9.94278 9.63649C9.99327 9.63657 10.0437 9.63195 10.0933 9.62268L10.2089 9.60165L10.3749 10.3989L10.3336 10.4109C10.2843 10.4248 10.2235 10.4405 10.1486 10.4576C10.0449 10.4798 9.9396 10.4932 9.83369 10.4978L9.79397 10.499C9.40482 10.5164 9.09259 10.4323 8.85728 10.2468C8.62728 10.0654 8.51126 9.79113 8.50922 9.42384L8.50928 7.38634H7.98091V6.58134H8.50928V5.65571H9.58041V6.58134L10.3074 6.58137ZM11.9506 10.5173C11.5818 10.5173 11.2758 10.4208 11.0327 10.2279C10.7896 10.035 10.6681 9.74751 10.6681 9.36543C10.6681 9.07733 10.736 8.85103 10.8717 8.68655C11.0126 8.51848 11.1977 8.3933 11.4062 8.32524C11.6362 8.24717 11.8747 8.19702 12.1166 8.17587C12.3584 8.15669 12.5987 8.12139 12.8358 8.07021C12.9804 8.03334 13.0525 7.95292 13.0522 7.82896V7.81349C13.0603 7.67412 13.0054 7.53849 12.9028 7.4439C12.8025 7.35723 12.6612 7.31371 12.479 7.31334C12.316 7.30483 12.1547 7.34886 12.0187 7.43893C11.9092 7.51661 11.8294 7.62917 11.7924 7.75815L10.8015 7.67793C10.8675 7.33742 11.0649 7.03656 11.3508 6.84027C11.6437 6.63446 12.0214 6.53137 12.484 6.53099C12.758 6.52886 13.0303 6.57493 13.2884 6.66712C13.5259 6.74878 13.7357 6.89564 13.8937 7.0909C14.0471 7.28309 14.1238 7.53243 14.1238 7.83893V10.4443H13.108V9.90871H13.0782C12.981 10.0912 12.835 10.2431 12.6566 10.3475C12.4696 10.4607 12.2342 10.5173 11.9506 10.5173ZM12.2571 9.77759C12.4691 9.78582 12.6762 9.71258 12.8358 9.5729C12.9059 9.5118 12.9622 9.43662 13.0012 9.35225C13.0402 9.26789 13.061 9.17624 13.0622 9.0833L13.0621 8.6539C13.0018 8.68962 12.936 8.71505 12.8674 8.72915C12.7742 8.75186 12.68 8.77032 12.5852 8.78446L12.4888 8.79927C12.4271 8.80899 12.3702 8.81821 12.3174 8.82596C12.1561 8.84354 12.0009 8.89785 11.8638 8.98474C11.8078 9.02238 11.7626 9.07386 11.7324 9.13417C11.7023 9.19447 11.6882 9.26156 11.6917 9.3289C11.6883 9.39315 11.7011 9.45721 11.729 9.51521C11.7568 9.57321 11.7988 9.62328 11.851 9.66084C11.9642 9.73698 12.0975 9.77773 12.2339 9.7779L12.2571 9.77759ZM15.4381 6.08346L15.4191 6.0834C15.2674 6.08589 15.1208 6.02844 15.0113 5.92352C14.957 5.87558 14.9136 5.81654 14.8841 5.75038C14.8546 5.68423 14.8397 5.61251 14.8403 5.54009C14.8397 5.46783 14.8547 5.39628 14.8842 5.33032C14.9136 5.26435 14.957 5.20551 15.0113 5.1578C15.2433 4.9474 15.597 4.9474 15.829 5.1578C15.8833 5.20551 15.9267 5.26435 15.9562 5.33032C15.9857 5.39628 16.0006 5.46783 16 5.54009C16.0006 5.60955 15.9869 5.67839 15.9597 5.74232C15.9325 5.80625 15.8924 5.86389 15.842 5.91165L15.829 5.92352C15.7236 6.02424 15.5839 6.08136 15.4381 6.08346M14.883 10.4443V6.58137H15.9541V10.4443H14.883Z" fill="black"/>
</svg>
