<svg width="32" height="32" viewBox="0 0 32 32" fill="none" xmlns="http://www.w3.org/2000/svg">
<g clip-path="url(#clip0_28_4)">
<path d="M30.2397 1.76025C29.0652 0.585683 27.652 -0.00106633 26.0001 1.45475e-06H5.9999C4.34697 1.45475e-06 2.93375 0.586751 1.76025 1.76025C0.585683 2.93482 -0.00106633 4.34803 1.45475e-06 5.9999V26.0001C1.45475e-06 27.653 0.586751 29.0662 1.76025 30.2397C2.93482 31.4143 4.34803 32.0011 5.9999 32H10.6672C10.9715 32 11.2006 31.9893 11.3543 31.968C11.5334 31.9326 11.695 31.8371 11.8124 31.6973C11.9651 31.5371 12.0414 31.3049 12.0414 31.0005L12.0302 29.5831C12.0238 28.6797 12.0206 27.9643 12.0206 27.4368L11.5401 27.5201C11.2358 27.5756 10.8509 27.6002 10.3853 27.5938C9.89951 27.5845 9.41528 27.5357 8.93739 27.448C8.42821 27.3557 7.94899 27.1413 7.54072 26.8234C7.11218 26.4993 6.7926 26.0523 6.62456 25.542L6.41634 25.0615C6.24017 24.6828 6.01973 24.3264 5.75965 23.9996C5.46067 23.6109 5.15848 23.3472 4.8531 23.2084L4.70895 23.1043C4.60885 23.0318 4.51748 22.9479 4.43666 22.8544C4.35946 22.7675 4.29624 22.6692 4.24926 22.5629C4.20762 22.4647 4.24232 22.3846 4.35337 22.3226C4.46442 22.2586 4.66623 22.2271 4.95881 22.2281L5.37525 22.2922C5.65287 22.3467 5.99616 22.5127 6.40513 22.7903C6.81846 23.0721 7.16373 23.4426 7.41579 23.8747C7.73612 24.4427 8.1216 24.8768 8.5722 25.1768C9.02388 25.4758 9.47875 25.6253 9.93683 25.6253C10.3949 25.6253 10.7911 25.5906 11.1253 25.5212C11.449 25.4541 11.7635 25.3487 12.0623 25.2073C12.1872 24.2772 12.5273 23.5618 13.0825 23.061C12.3625 22.9898 11.6488 22.8646 10.9475 22.6862C10.2632 22.4985 9.60508 22.2257 8.98864 21.8742C8.34355 21.523 7.77377 21.0484 7.31168 20.4775C6.86748 19.9223 6.50283 19.1935 6.21773 18.2912C5.9337 17.3879 5.79168 16.3457 5.79168 15.1647C5.79168 13.4851 6.33999 12.0543 7.43661 10.8722C6.92407 9.60902 6.97266 8.19314 7.58236 6.62456C7.98599 6.49856 8.58341 6.59199 9.37464 6.90485C10.1659 7.21771 10.7457 7.48466 11.1141 7.70569C11.4825 7.92993 11.7777 8.11786 11.9998 8.26948C13.3018 7.90645 14.6475 7.72429 15.9992 7.72811C17.3745 7.72811 18.7082 7.90857 20.0002 8.26948L20.7914 7.76976C21.4001 7.40436 22.042 7.0976 22.7086 6.8536C23.4444 6.57597 24.0071 6.49963 24.3968 6.62456C25.0215 8.1942 25.0765 9.61063 24.5618 10.8738C25.6595 12.0537 26.2083 13.4846 26.2083 15.1663C26.2083 16.3473 26.0658 17.3921 25.7807 18.3008C25.4966 19.2106 25.1288 19.9399 24.6771 20.4887C24.2055 21.051 23.6337 21.5208 22.9905 21.8742C22.3178 22.249 21.6649 22.5196 21.0317 22.6862C20.3305 22.8651 19.6168 22.9909 18.8966 23.0626C19.6174 23.6873 19.9783 24.6728 19.9794 26.0193V31.0005C19.9794 31.2355 20.0141 31.4261 20.0835 31.5723C20.1159 31.6426 20.1621 31.7056 20.2193 31.7576C20.2765 31.8096 20.3436 31.8495 20.4166 31.8751C20.5693 31.9306 20.7049 31.9648 20.8235 31.9776C20.942 31.9925 21.1118 31.9995 21.3328 31.9984H26.0001C27.653 31.9984 29.0663 31.4116 30.2397 30.2381C31.4132 29.0646 32 27.6514 32 25.9985V5.9999C32 4.34697 31.4143 2.93375 30.2397 1.76025Z" fill="black"/>
</g>
<defs>
<clipPath id="clip0_28_4">
<rect width="32" height="32" fill="white"/>
</clipPath>
</defs>
</svg>
