<svg width="16" height="16" viewBox="0 0 16 16" fill="none" xmlns="http://www.w3.org/2000/svg">
<g clip-path="url(#clip0_37_13)">
<path d="M12.25 0H3.75C1.67893 0 0 1.67893 0 3.75V12.25C0 14.3211 1.67893 16 3.75 16H12.25C14.3211 16 16 14.3211 16 12.25V3.75C16 1.67893 14.3211 0 12.25 0Z" fill="url(#paint0_linear_37_13)"/>
<path d="M0.71789 8.06743L3.86189 9.34143V10.2332L0.140015 8.50881V7.98556L0.71789 8.06743ZM3.86189 7.02099L0.722452 8.31312L0.140077 8.37687V7.84906L3.86183 6.12918L3.86189 7.02099ZM15.0856 8.24943L11.8506 6.98912V6.12006L15.7363 7.83993V8.37231L15.0856 8.24943ZM11.8506 9.35962L15.0948 8.07199L15.7363 7.97643V8.50424L11.8506 10.2287V9.35962Z" fill="white"/>
<path fill-rule="evenodd" clip-rule="evenodd" d="M11.0048 3.81868C10.9868 4.10405 10.8582 4.40206 10.894 4.67949C11.1186 5.07662 11.6129 5.13993 12.0206 5.16718C12.3031 5.21768 12.2995 5.03062 12.2806 4.82049L12.284 3.81274C11.8576 3.81431 11.431 3.80855 11.0048 3.81868ZM7.64223 4.61681C6.94798 4.73468 6.24423 5.06643 5.66666 5.46581C5.20179 5.82762 6.06573 6.17824 6.37916 6.23687C7.00979 6.24456 7.5691 5.81918 7.98335 5.37768C8.1186 5.19206 8.28754 4.90787 8.1176 4.69268C7.98785 4.58018 7.79916 4.60743 7.64223 4.61681ZM9.11954 5.62656C8.54873 5.73531 8.0056 5.97055 7.52504 6.29812C7.17273 6.40874 6.88235 6.79556 7.31891 6.98937C7.77735 7.35468 8.30866 7.26518 8.73085 7.01855C9.11748 6.78874 9.5351 6.50518 9.71398 6.07256C9.88291 5.59862 9.44704 5.58106 9.11954 5.62656ZM10.7389 7.46299C10.6325 7.90699 10.1854 8.10887 9.94754 8.46068C9.75304 8.71731 9.8431 9.01962 10.0645 9.22162C10.1724 9.44518 10.3614 9.57012 10.564 9.37593C11.086 9.02105 11.2304 8.32981 11.2087 7.73087C11.2473 7.48349 10.9635 7.70712 10.7389 7.46299ZM8.75241 8.29693C8.05923 8.41556 7.36591 8.7533 6.7881 9.15205C6.33954 9.51337 7.18435 9.85074 7.50035 9.90424C8.14266 9.90518 8.7156 9.49124 9.12173 9.02112C9.26298 8.83443 9.43416 8.47187 9.15448 8.32343C9.02941 8.27043 8.88423 8.28599 8.75241 8.29693Z" fill="#B956A6"/>
<path fill-rule="evenodd" clip-rule="evenodd" d="M5.66669 5.46582C5.13357 5.67913 4.61932 5.93813 4.11144 6.20938C4.01707 6.56032 4.09275 6.99488 4.06832 7.37969C4.06644 8.96194 4.06732 10.5443 4.06707 12.1265H5.24332C5.48082 11.9029 5.77832 11.7392 6.03632 11.5361C7.02969 10.8237 8.02275 10.1085 9.01482 9.39807C9.08782 9.43088 9.04107 8.96863 8.88094 9.28969C8.5015 9.64675 7.99788 9.94044 7.46482 9.91175C7.16232 9.81225 6.67469 9.64344 6.67163 9.27275C6.88457 9.02207 6.27875 9.404 6.113 9.45869C5.57413 9.71744 5.048 10.0064 4.508 10.2603C4.63775 10.1209 4.8805 9.991 5.05263 9.85275C6.28219 8.97013 7.51144 8.08407 8.74394 7.20213C8.981 7.03569 9.21 6.85413 9.45438 6.69857C9.47669 6.78475 9.51857 6.2865 9.33682 6.59325C8.96632 6.9605 8.46657 7.23388 7.9395 7.23763C7.64307 7.14763 7.01169 6.93244 7.15225 6.54969C7.22082 6.41538 6.5155 6.836 6.82713 6.59882C7.15882 6.35644 7.49313 6.11838 7.82738 5.8785C7.99619 5.86582 7.96025 5.23875 7.73088 5.64325C7.34557 5.98182 6.83932 6.29157 6.30863 6.21813C6.0105 6.13232 5.65282 5.96613 5.54444 5.65438C5.50857 5.5795 5.74519 5.46282 5.66669 5.46582ZM7.87538 5.85288C7.84582 5.93744 7.92894 5.822 7.87538 5.85288V5.85288Z" fill="#FCCC44"/>
<path fill-rule="evenodd" clip-rule="evenodd" d="M11.2437 5.04688C11.0773 5.84163 10.8953 6.67345 10.7389 7.46295C11.1884 8.02945 11.232 7.10507 11.3106 6.8437C11.4376 6.29738 11.5881 5.88488 11.6041 5.31926C11.6378 5.1262 11.411 5.00932 11.2437 5.04688ZM11.7594 5.67007C11.7453 5.75151 11.7799 5.68538 11.7594 5.67007V5.67007ZM11.235 7.4522C11.2566 7.40557 11.2566 7.49876 11.235 7.4522V7.4522Z" fill="#62777F"/>
<path fill-rule="evenodd" clip-rule="evenodd" d="M11.5385 5.13686C11.6788 5.92449 11.2142 6.88136 11.0623 7.62399C11.4073 7.37011 11.6738 6.21824 11.7419 5.76736C11.7595 5.7158 11.7811 5.58605 11.7858 5.58136C11.8075 5.47192 12.0096 5.28649 12.0206 5.16717C12.1383 5.08417 11.4425 5.07086 11.5385 5.13686ZM11.2524 7.45217C11.2308 7.40555 11.2308 7.49873 11.2524 7.45217V7.45217Z" fill="#4E5E67"/>
<path fill-rule="evenodd" clip-rule="evenodd" d="M5.67836 5.47892C5.48386 5.67367 5.55686 5.62611 5.70161 5.46417L5.67836 5.47892ZM7.78211 5.57536C7.5568 5.91392 6.7443 6.19705 6.64199 6.21898C7.13074 6.12742 7.5863 5.82336 7.90686 5.46723C7.85592 5.48992 7.82567 5.54323 7.78211 5.57536ZM5.54474 5.6853C5.66617 5.9773 6.10774 6.1713 6.3223 6.21655C6.02936 6.12217 5.68455 5.9548 5.54474 5.6853ZM7.85786 5.85417C7.79655 5.92655 7.57817 6.0348 7.46305 6.14105C7.21611 6.32317 6.96067 6.49242 6.71655 6.67911C6.87199 6.67242 7.32749 6.33217 7.09399 6.67742C7.29186 7.01798 7.72267 7.2548 8.11549 7.23317C8.63424 7.15173 9.11261 6.86492 9.45649 6.46605C9.03905 6.87911 8.48717 7.26786 7.87649 7.2143C7.58092 7.14605 6.7733 6.72886 7.31355 6.43642C7.50405 6.27973 7.83249 6.19767 7.86967 5.9223C7.86186 5.88792 7.92592 5.85436 7.85786 5.85417ZM6.37917 6.23686C6.57574 6.21123 6.57574 6.26255 6.37917 6.23686V6.23686ZM9.44186 6.70717C8.66192 7.25055 7.8933 7.81517 7.12011 8.3683C6.24386 8.99542 5.37136 9.62486 4.49536 10.2515C4.82474 10.1404 5.15474 9.92355 5.48192 9.77374C5.93255 9.53536 6.40767 9.34705 6.8293 9.05748C7.66292 8.56673 8.54455 8.09917 9.18574 7.34836C9.32567 7.18423 9.46599 6.92005 9.47224 6.74236C9.45205 6.74805 9.46736 6.6713 9.44186 6.70717ZM6.78811 9.15199C6.6478 9.31055 6.5908 9.42386 6.73642 9.22223C6.73386 9.24561 6.85461 9.09705 6.78811 9.15199ZM8.92286 9.22786C8.55324 9.61761 8.00655 9.89873 7.49361 9.91767C8.08661 9.92198 8.62161 9.56998 9.02336 9.15473C8.99699 9.12286 8.94355 9.22898 8.92286 9.22786ZM9.0358 9.35036C7.79399 10.2544 6.5093 11.192 5.2633 12.0928C5.45955 12.1544 5.88699 12.1832 6.08205 11.9319C6.49705 11.6455 6.96361 11.435 7.37999 11.1447C7.98292 10.7535 8.62849 10.3259 8.97092 9.6683C8.98724 9.58011 9.10842 9.42148 9.0358 9.35036ZM6.67249 9.40773C6.73011 9.65098 7.45049 9.93017 7.37236 9.87673C7.10674 9.78361 6.84324 9.63848 6.67249 9.40773Z" fill="#DC9624"/>
</g>
<defs>
<linearGradient id="paint0_linear_37_13" x1="0" y1="16" x2="16" y2="0" gradientUnits="userSpaceOnUse">
<stop stop-color="#DB7093"/>
<stop offset="1" stop-color="#F3B661"/>
</linearGradient>
<clipPath id="clip0_37_13">
<rect width="16" height="16" fill="white"/>
</clipPath>
</defs>
</svg>
