<svg width="18" height="16" viewBox="0 0 18 16" fill="none" xmlns="http://www.w3.org/2000/svg">
<g clip-path="url(#clip0_36_15)">
<path d="M10.99 9.91214L10.6484 10.5053C10.5978 10.5931 10.525 10.666 10.4373 10.7167C10.3496 10.7674 10.2501 10.7941 10.1488 10.7941H7.53187C7.43056 10.7941 7.33105 10.7674 7.24334 10.7167C7.15564 10.666 7.08283 10.5931 7.03225 10.5053L6.69062 9.91214H10.99ZM11.9463 8.25162L11.344 9.29746H6.33667L5.73437 8.25162H11.9463ZM11.3661 6.62783L11.9472 7.63694H5.7334L6.31455 6.62783H11.3661ZM10.1487 5.0928C10.25 5.0928 10.3495 5.11949 10.4373 5.17018C10.525 5.22088 10.5978 5.29379 10.6484 5.38157L11.0121 6.01315H6.66856L7.03232 5.38157C7.0829 5.2938 7.15571 5.22089 7.24341 5.1702C7.33112 5.11951 7.43063 5.09281 7.53194 5.0928H10.1487Z" fill="#00435B"/>
<path d="M3.72334 4.8173C3.43346 3.41167 3.3712 2.33355 3.55861 1.55073C3.67006 1.08513 3.87374 0.705303 4.18359 0.431216C4.51068 0.141895 4.92418 -8.79234e-05 5.38887 -8.79234e-05C6.15534 -8.79234e-05 6.96119 0.349477 7.82226 1.01348C8.17357 1.28436 8.53809 1.61083 8.91666 1.99309C8.94686 1.95435 8.98087 1.91776 9.01886 1.88388C10.0892 0.930138 10.9903 0.337443 11.7611 0.10899C12.2194 -0.0269401 12.6497 -0.0398792 13.0415 0.0920164C13.4551 0.231147 13.7846 0.518938 14.0172 0.92193C14.4009 1.58704 14.5021 2.46099 14.359 3.54016C14.3007 3.98002 14.201 4.45911 14.0602 4.97828C14.1133 4.98468 14.1666 4.9965 14.2193 5.01396C15.5773 5.46405 16.539 5.94795 17.1212 6.50106C17.4676 6.8301 17.6938 7.19643 17.7756 7.602C17.8618 8.03003 17.7777 8.45932 17.5455 8.86203C17.1624 9.52624 16.4582 10.05 15.4549 10.4649C15.0521 10.6315 14.5962 10.7824 14.087 10.9181C14.1102 10.9706 14.1283 11.0263 14.1403 11.0847C14.4302 12.4903 14.4924 13.5685 14.305 14.3513C14.1936 14.8169 13.9898 15.1967 13.68 15.4708C13.353 15.7601 12.9394 15.9021 12.4748 15.9021C11.7082 15.9021 10.9025 15.5525 10.0414 14.8885C9.68633 14.6147 9.31778 14.2842 8.93482 13.8967C8.89453 13.9597 8.84575 14.0169 8.78985 14.0666C7.71952 15.0204 6.81837 15.613 6.04759 15.8415C5.58929 15.9774 5.15903 15.9904 4.76724 15.8585C4.3536 15.7194 4.02407 15.4316 3.79152 15.0286C3.40779 14.3635 3.30665 13.4895 3.44967 12.4103C3.51012 11.9546 3.61496 11.4567 3.76397 10.9157C3.70457 10.9097 3.64602 10.8972 3.58936 10.8784C2.23138 10.4283 1.26971 9.9444 0.687516 9.39129C0.341082 9.06224 0.114925 8.69591 0.0331163 8.29035C-0.0531446 7.86231 0.0310293 7.43296 0.263238 7.03024C0.646264 6.3661 1.35054 5.84228 2.35381 5.42746C2.76863 5.25584 3.23966 5.10099 3.76738 4.96214C3.74834 4.91529 3.7336 4.86682 3.72334 4.8173Z" fill="#002B3B"/>
<path d="M13.1928 11.2232C13.2576 11.2117 13.3244 11.2256 13.3792 11.262C13.4341 11.2984 13.4728 11.3545 13.4874 11.4186L13.489 11.4264L13.5034 11.5012C13.9702 13.9552 13.6414 15.1823 12.517 15.1823C11.417 15.1823 10.0166 14.1352 8.31583 12.0412C8.28561 12.004 8.26644 11.959 8.26049 11.9114C8.25455 11.8639 8.26206 11.8156 8.28218 11.7721C8.3023 11.7286 8.33423 11.6916 8.37432 11.6653C8.41442 11.639 8.46108 11.6245 8.50901 11.6234H8.51694L8.60654 11.6241C9.32223 11.628 10.018 11.603 10.6938 11.5492C11.4915 11.4857 12.3245 11.377 13.1928 11.2232ZM5.47103 9.36814L5.47534 9.37544L5.52028 9.45384C5.88039 10.0799 6.25558 10.6742 6.64584 11.2366C7.10553 11.8989 7.6224 12.5693 8.19645 13.248C8.23906 13.2984 8.26061 13.3632 8.2566 13.4291C8.2526 13.4949 8.22335 13.5567 8.17496 13.6015L8.16849 13.6073L8.11075 13.657C6.21115 15.2847 4.97651 15.6096 4.40682 14.6318C3.84914 13.6748 4.05132 11.9345 5.01336 9.41113C5.03039 9.36642 5.0596 9.32738 5.09768 9.29842C5.13576 9.26945 5.18118 9.25173 5.22882 9.24726C5.27645 9.24278 5.32438 9.25173 5.36719 9.2731C5.41 9.29446 5.44597 9.32738 5.47103 9.36814ZM14.1567 5.74699L14.1645 5.74956L14.236 5.77419C16.5807 6.58987 17.4715 7.48621 16.9085 8.46323C16.3578 9.41883 14.7568 10.1146 12.1056 10.5505C12.0575 10.5584 12.0082 10.5524 11.9634 10.5333C11.9187 10.5142 11.8802 10.4827 11.8527 10.4426C11.8252 10.4024 11.8096 10.3552 11.8079 10.3066C11.8062 10.2579 11.8184 10.2098 11.8431 10.1678C12.2229 9.52185 12.5649 8.87914 12.8691 8.23965C13.2142 7.51441 13.538 6.73598 13.8406 5.90435C13.8626 5.8439 13.9065 5.79393 13.9636 5.76436C14.0207 5.73478 14.0869 5.72776 14.1489 5.74469L14.1567 5.74699ZM5.8745 5.33635C5.90352 5.35339 5.9289 5.37598 5.94918 5.40283C5.96947 5.42969 5.98427 5.46027 5.99273 5.49284C6.00119 5.52541 6.00315 5.55933 5.9985 5.59266C5.99386 5.62599 5.98269 5.65808 5.96563 5.68709C5.58581 6.33298 5.24378 6.9757 4.93955 7.61523C4.5945 8.34043 4.27068 9.11886 3.96807 9.95054C3.9456 10.0123 3.90027 10.0631 3.84144 10.0923C3.78261 10.1216 3.71478 10.1272 3.65196 10.1079L3.64417 10.1053L3.57266 10.0806C1.22799 9.265 0.337182 8.36867 0.900243 7.39165C1.45092 6.43606 3.05187 5.74029 5.70309 5.30435C5.76223 5.29461 5.82289 5.30595 5.8745 5.33635ZM13.4019 1.31902C13.9596 2.2761 13.7574 4.01635 12.7953 6.53976C12.7783 6.58446 12.7491 6.62351 12.711 6.65247C12.6729 6.68143 12.6275 6.69915 12.5799 6.70363C12.5322 6.7081 12.4843 6.69915 12.4415 6.67779C12.3987 6.65642 12.3627 6.6235 12.3377 6.58275L12.3334 6.57544L12.2884 6.49704C11.9283 5.87095 11.5531 5.27671 11.1629 4.71429C10.7032 4.05203 10.1863 3.38156 9.61224 2.70289C9.56963 2.65252 9.54809 2.58766 9.55209 2.52181C9.5561 2.45596 9.58534 2.39419 9.63374 2.34936L9.64021 2.34358L9.69795 2.29384C11.5975 0.666248 12.8322 0.341309 13.4019 1.31902ZM5.38783 0.736694C6.48793 0.736694 7.88832 1.7837 9.58901 3.8777C9.61922 3.91492 9.63839 3.95987 9.64434 4.00744C9.65029 4.055 9.64277 4.10329 9.62265 4.1468C9.60253 4.19031 9.57061 4.22731 9.53051 4.25358C9.49041 4.27986 9.44375 4.29436 9.39583 4.29544H9.38789L9.29829 4.29489C8.58265 4.29099 7.88693 4.31594 7.21113 4.36974C6.41336 4.43327 5.58031 4.54196 4.712 4.69579C4.6472 4.70726 4.58046 4.69335 4.52563 4.65696C4.4708 4.62057 4.43207 4.56448 4.41746 4.50031L4.41579 4.49245L4.40139 4.41774C3.93456 1.96371 4.26337 0.736694 5.38783 0.736694Z" fill="#FF4154"/>
<path d="M7.74225 5.12488H9.93884C10.0967 5.12487 10.2517 5.16651 10.3883 5.2456C10.5248 5.32469 10.6381 5.43843 10.7167 5.57531L11.8196 7.49712C11.8976 7.63297 11.9386 7.78688 11.9386 7.94352C11.9386 8.10016 11.8976 8.25407 11.8196 8.38992L10.7167 10.3117C10.6381 10.4486 10.5248 10.5623 10.3883 10.6414C10.2517 10.7205 10.0967 10.7622 9.93884 10.7622H7.74225C7.421 10.7622 7.1243 10.5903 6.96437 10.3117L5.86156 8.38992C5.78358 8.25407 5.74254 8.10016 5.74254 7.94352C5.74254 7.78688 5.78358 7.63297 5.86156 7.49712L6.96444 5.57531C7.04299 5.43842 7.15628 5.32468 7.29286 5.24559C7.42945 5.1665 7.58442 5.12486 7.74225 5.12488ZM9.60409 5.70491C9.92549 5.70491 10.2224 5.87695 10.3822 6.15576L11.1513 7.49754C11.2291 7.63329 11.2701 7.78704 11.2701 7.94352C11.2701 8.1 11.2291 8.25375 11.1513 8.3895L10.3822 9.73128C10.3037 9.86827 10.1904 9.9821 10.0537 10.0613C9.9171 10.1404 9.76199 10.1821 9.60409 10.1821H8.07714C7.75575 10.1821 7.45884 10.0101 7.29905 9.73128L6.52994 8.3895C6.45211 8.25375 6.41116 8.1 6.41116 7.94352C6.41116 7.78704 6.45211 7.63329 6.52994 7.49754L7.29905 6.15576C7.37757 6.01878 7.49086 5.90496 7.62747 5.82581C7.76409 5.74665 7.91918 5.70497 8.07707 5.70498L9.60409 5.70491ZM9.24326 6.33935H8.43797C8.28021 6.33933 8.12524 6.38093 7.9887 6.45996C7.85215 6.53898 7.73888 6.65263 7.6603 6.78943L7.2539 7.4967C7.17577 7.63265 7.13465 7.78672 7.13465 7.94352C7.13465 8.10033 7.17577 8.25439 7.2539 8.39034L7.6603 9.09768C7.73888 9.23448 7.85215 9.34813 7.9887 9.42715C8.12524 9.50618 8.28021 9.54778 8.43797 9.54776H9.24326C9.56437 9.54776 9.861 9.37608 10.0209 9.09768L10.4273 8.39034C10.5055 8.25439 10.5466 8.10033 10.5466 7.94352C10.5466 7.78672 10.5055 7.63265 10.4273 7.4967L10.0209 6.78936C9.94235 6.65256 9.82908 6.53891 9.69254 6.45989C9.55599 6.38086 9.40102 6.33933 9.24326 6.33935ZM8.89585 6.94651C9.21669 6.94651 9.5131 7.11792 9.6731 7.3959L9.73077 7.49608C9.80911 7.63216 9.85035 7.78643 9.85035 7.94345C9.85035 8.10047 9.80911 8.25474 9.73077 8.39083L9.6731 8.491C9.59447 8.62761 9.48123 8.74108 9.34477 8.81998C9.20831 8.89887 9.05347 8.94041 8.89585 8.94039H8.78538C8.62776 8.94041 8.47292 8.89887 8.33646 8.81998C8.20001 8.74108 8.08676 8.62761 8.00813 8.491L7.95046 8.39083C7.87212 8.25474 7.83089 8.10047 7.83089 7.94345C7.83089 7.78643 7.87212 7.63216 7.95046 7.49608L8.00813 7.3959C8.08676 7.25929 8.20001 7.14582 8.33646 7.06693C8.47292 6.98803 8.62776 6.9465 8.78538 6.94651H8.89585ZM8.84075 7.5447C8.7707 7.54469 8.70188 7.5631 8.64119 7.5981C8.5805 7.63309 8.53009 7.68344 8.49502 7.74408C8.46 7.80469 8.44157 7.87345 8.44157 7.94345C8.44157 8.01345 8.46 8.08221 8.49502 8.14283C8.53006 8.20348 8.58044 8.25385 8.64111 8.28887C8.70178 8.32388 8.7706 8.34232 8.84065 8.34232C8.9107 8.34232 8.97952 8.32388 9.04019 8.28887C9.10086 8.25385 9.15124 8.20348 9.18629 8.14283C9.2213 8.08221 9.23973 8.01345 9.23973 7.94345C9.23973 7.87345 9.2213 7.80469 9.18629 7.74408C9.15123 7.68347 9.10085 7.63314 9.0402 7.59815C8.97956 7.56316 8.91077 7.54472 8.84075 7.5447ZM5.60535 7.94345H6.32326H5.60535Z" fill="#FFD94C"/>
</g>
<defs>
<clipPath id="clip0_36_15">
<rect width="17.8087" height="16" fill="white"/>
</clipPath>
</defs>
</svg>
